<svg xmlns="http://www.w3.org/2000/svg" viewBox="0 0 128 128" width="128" height="128">
  <defs>
    <linearGradient id="bg13" x1="0%" y1="0%" x2="100%" y2="100%">
      <stop offset="0%" style="stop-color:#5B21B6"/>
      <stop offset="100%" style="stop-color:#818CF8"/>
    </linearGradient>
  </defs>
  <rect x="4" y="4" width="120" height="120" rx="20" ry="20" fill="url(#bg13)"/>
  <!-- Back page: XML code -->
  <rect x="14" y="14" width="72" height="56" rx="5" fill="white" opacity="0.2"/>
  <text x="24" y="32" font-family="monospace" font-size="9" fill="white" opacity="0.6">&lt;VStack&gt;</text>
  <text x="31" y="43" font-family="monospace" font-size="8" fill="white" opacity="0.45">&lt;Text /&gt;</text>
  <text x="31" y="53" font-family="monospace" font-size="8" fill="white" opacity="0.45">&lt;Table /&gt;</text>
  <text x="24" y="63" font-family="monospace" font-size="9" fill="white" opacity="0.6">&lt;/VStack&gt;</text>
  <!-- Front page: PPTX slide -->
  <rect x="38" y="40" width="78" height="60" rx="5" fill="white" opacity="0.95"/>
  <rect x="50" y="50" width="30" height="5" rx="2.5" fill="#5B21B6" opacity="0.55"/>
  <rect x="50" y="62" width="54" height="3" rx="1.5" fill="#5B21B6" opacity="0.2"/>
  <rect x="50" y="69" width="46" height="3" rx="1.5" fill="#5B21B6" opacity="0.2"/>
  <rect x="50" y="76" width="50" height="3" rx="1.5" fill="#5B21B6" opacity="0.2"/>
  <rect x="50" y="84" width="10" height="10" rx="2" fill="#5B21B6" opacity="0.25"/>
  <rect x="64" y="88" width="10" height="6" rx="2" fill="#5B21B6" opacity="0.25"/>
  <rect x="78" y="82" width="10" height="12" rx="2" fill="#5B21B6" opacity="0.25"/>
  <rect x="92" y="86" width="10" height="8" rx="2" fill="#5B21B6" opacity="0.25"/>
</svg>
